Coordinates
version=1
nRows=54
nColumns=12
inDegrees=yes

Units are S.I. units (second, meters, Newtons, ...)
Angles are in degrees

endheader
time	SC_y	SC_z	SC_x	AC_y	AC_z	AC_x	GH_y	GH_z	GH_yy	EL_x	PS_y
       0.0              -39.14          11.87          69.63          50.91          1.948         -9.232          157.6          34.24         -176.4          84.35          124.2
 0.0007346              -39.15          11.87          69.62          50.91          1.948         -9.228          157.6          34.23         -176.4          84.35          124.2
  0.001469              -39.15          11.88          69.61          50.91          1.947         -9.224          157.6          34.22         -176.4          84.36          124.2
  0.002204              -39.15          11.88           69.6           50.9          1.946          -9.22          157.6          34.21         -176.4          84.36          124.2
  0.002938              -39.15          11.88          69.59           50.9          1.946         -9.215          157.6           34.2         -176.3          84.37          124.2
  0.003673              -39.16          11.89          69.58           50.9          1.945          -9.21          157.5          34.19         -176.3          84.37          124.2
  0.004407              -39.16          11.89          69.57          50.89          1.944         -9.205          157.5          34.18         -176.3          84.38          124.2
  0.005142              -39.16           11.9          69.56          50.89          1.943         -9.199          157.5          34.17         -176.2          84.38          124.2
  0.005877              -39.17           11.9          69.55          50.89          1.942         -9.193          157.5          34.16         -176.2          84.39          124.2
  0.006611              -39.17          11.91          69.54          50.88          1.941         -9.187          157.5          34.15         -176.2          84.39          124.2
  0.007346              -39.18          11.91          69.52          50.88          1.939          -9.18          157.5          34.14         -176.1           84.4          124.3
   0.00808              -39.18          11.92          69.51          50.87          1.938         -9.173          157.5          34.12         -176.1          84.41          124.3
  0.008815              -39.19          11.92          69.49          50.87          1.937         -9.164          157.5          34.11         -176.0          84.42          124.3
  0.009549              -39.19          11.93          69.47          50.86          1.935         -9.156          157.5          34.09         -176.0          84.43          124.3
   0.01028               -39.2          11.94          69.45          50.86          1.934         -9.146          157.5          34.07         -175.9          84.43          124.3
   0.01102               -39.2          11.95          69.43          50.85          1.932         -9.136          157.4          34.05         -175.9          84.44          124.3
   0.01175              -39.21          11.95          69.41          50.85           1.93         -9.125          157.4          34.03         -175.8          84.46          124.3
   0.01249              -39.22          11.96          69.39          50.84          1.928         -9.113          157.4          34.01         -175.7          84.47          124.3
   0.01322              -39.23          11.97          69.36          50.83          1.926           -9.1          157.4          33.98         -175.7          84.48          124.3
   0.01396              -39.24          11.98          69.33          50.82          1.923         -9.085          157.4          33.95         -175.6           84.5          124.3
   0.01469              -39.25           12.0           69.3          50.81          1.921          -9.07          157.3          33.92         -175.5          84.51          124.4
   0.01543              -39.26          12.01          69.26           50.8          1.918         -9.052          157.3          33.89         -175.4          84.53          124.4
   0.01616              -39.27          12.02          69.22          50.79          1.914         -9.033          157.3          33.85         -175.3          84.55          124.4
   0.01689              -39.28          12.04          69.18          50.78          1.911         -9.012          157.2          33.81         -175.1          84.57          124.4
   0.01763               -39.3          12.06          69.13          50.76          1.907         -8.988          157.2          33.77         -175.0          84.59          124.4
   0.01836              -39.31          12.08          69.08          50.74          1.902         -8.961          157.2          33.72         -174.9          84.62          124.5
    0.0191              -39.33           12.1          69.02          50.73          1.897         -8.932          157.1          33.66         -174.7          84.65          124.5
   0.01983              -39.35          12.13          68.95          50.71          1.891         -8.898          157.1           33.6         -174.5          84.68          124.5
   0.02057              -39.38          12.16          68.87          50.68          1.885         -8.861          157.0          33.52         -174.3          84.72          124.5
    0.0213               -39.4          12.19          68.78          50.66          1.878         -8.818          157.0          33.44         -174.0          84.76          124.6
   0.02204              -39.43          12.23          68.69          50.63          1.869         -8.769          156.9          33.35         -173.7          84.81          124.6
   0.02277              -39.47          12.27          68.57          50.59           1.86         -8.713          156.8          33.24         -173.4          84.87          124.7
   0.02351              -39.51          12.32          68.44          50.55          1.849         -8.648          156.7          33.12         -173.0          84.93          124.7
   0.02424              -39.56          12.38          68.29          50.51          1.836         -8.573          156.6          32.97         -172.6          85.01          124.8
   0.02498              -39.61          12.45          68.11          50.45          1.821         -8.485          156.5           32.8         -172.1           85.1          124.9
   0.02571              -39.68          12.53           67.9          50.39          1.803         -8.381          156.3          32.61         -171.5           85.2          125.0
   0.02644              -39.76          12.62          67.65          50.31          1.782         -8.258          156.1          32.37         -170.8          85.33          125.1
   0.02718              -39.85          12.74          67.34          50.22          1.756          -8.11          155.9          32.09         -169.9          85.48          125.2
   0.02791              -39.96          12.88          66.98          50.11          1.726         -7.932          155.6          31.74         -168.9          85.65          125.4
   0.02865               -40.1          13.04          66.54          49.98          1.689         -7.713          155.3          31.33         -167.6          85.87          125.6
   0.02938              -40.27          13.25          65.99          49.81          1.642         -7.444          154.9          30.81         -166.1          86.14          125.8
   0.03012              -40.48          13.51           65.3           49.6          1.585         -7.108          154.4          30.17         -164.1          86.48          126.1
   0.03085              -40.75          13.84          64.44          49.34          1.513         -6.684          153.7          29.35         -161.7          86.91          126.5
   0.03159              -41.08          14.25          63.35          49.01           1.42         -6.146          152.9          28.32         -158.5          87.45          127.0
   0.03232              -41.52          14.79          61.95          48.59          1.303         -5.457          151.9           27.0         -154.6          88.14          127.6
   0.03306              -42.07          15.47          60.15          48.04          1.151         -4.574          150.5          25.31         -149.4          89.03          128.4
   0.03379              -42.78          16.34          57.85          47.35         0.9582         -3.444          148.8          23.15         -142.9          90.16          129.4
   0.03452              -43.68          17.44          54.96          46.48         0.7153         -2.025          146.7          20.43         -134.7          91.59          130.7
   0.03526              -44.76          18.77          51.44          45.41         0.4192        -0.2946          144.1          17.11         -124.6          93.33          132.3
   0.03599              -46.03          20.32          47.36          44.18        0.07613          1.711          141.0          13.27         -113.0          95.34          134.1
   0.03673              -47.39           22.0          42.94          42.84        -0.2954          3.882          137.8          9.107         -100.4          97.52          136.1
   0.03746              -48.76          23.67          38.52           41.5        -0.6669          6.054          134.5          4.946         -87.86           99.7          138.1
    0.0382              -50.02          25.22          34.44          40.27          -1.01          8.059          131.5          1.104         -76.24          101.7          139.9
   0.03893              -51.11          26.56          30.92           39.2         -1.306          9.789          128.8         -2.211         -66.22          103.5          141.4
